<?xml version="1.0" encoding="UTF-8"?>
<svg version="1.1" xmlns="http://www.w3.org/2000/svg" width="232" height="302">
<path d="M0 0 C0.5775 0.639375 1.155 1.27875 1.75 1.9375 C4.20792767 4.19060036 5.19509824 4.40975068 8.375 5 C13.53529032 5.96755443 17.01825665 8.01825665 20.75 11.75 C23.9947537 17.59055666 24.23229473 23.49574753 24 30 C24.804375 29.814375 25.60875 29.62875 26.4375 29.4375 C27.7059375 29.2209375 27.7059375 29.2209375 29 29 C30 30 30 30 30.3125 32.8125 C30 36 30 36 28.4375 38.4375 C26 40 26 40 22.75 40.1875 C17.70637253 38.5903513 14.45237608 35.97791343 11 32 C9.5 28.5625 9.5 28.5625 9 26 C5.95071844 27.06530151 5.95071844 27.06530151 3 29 C2.02525184 32.08961458 2.02525184 32.08961458 2 35 C2.90492187 35.05607422 2.90492187 35.05607422 3.828125 35.11328125 C7.33105642 35.40142561 10.32696075 35.70451935 13.5625 37.125 C15.83183347 40.08500018 15.4429895 42.39279982 15 46 C13.9375 48.4375 13.9375 48.4375 12 50 C7.83946121 50.54950512 5.56680416 50.28895899 1.8125 48.375 C-0.85497796 46.68851298 -0.85497796 46.68851298 -3.3125 47.625 C-5.29385942 48.988745 -5.29385942 48.988745 -6 52 C-5.195625 52.12375 -4.39125 52.2475 -3.5625 52.375 C-2.716875 52.58125 -1.87125 52.7875 -1 53 C-0.67 53.66 -0.34 54.32 0 55 C-0.495 55.99 -0.495 55.99 -1 57 C0.485 57.495 0.485 57.495 2 58 C2 59.65 2 61.3 2 63 C-1.37097383 64.49821059 -3.20442119 65 -7 65 C-4.99879086 67.40323806 -4.99879086 67.40323806 -2.08984375 68.28515625 C4.62844737 67.59016062 11.14018007 64.85981993 16 60 C16.26921577 58.41982048 16.51543007 56.83569272 16.75 55.25 C17.66328832 50.45008622 19.00438148 48.02107742 23 45 C23.99 44.67 24.98 44.34 26 44 C27.41693757 46.83387515 27.1699013 49.28029373 27.1875 52.4375 C27.20167969 53.59121094 27.21585937 54.74492188 27.23046875 55.93359375 C27 59 27 59 25 62 C24.01 62 23.02 62 22 62 C22 62.66 22 63.32 22 64 C23.216875 64.04125 24.43375 64.0825 25.6875 64.125 C26.37199219 64.14820312 27.05648437 64.17140625 27.76171875 64.1953125 C30.07060197 64.11425135 30.07060197 64.11425135 32.28125 63 C35.81311656 61.70092265 39.10767148 61.78282245 42.8125 61.875 C43.85180664 61.88853516 43.85180664 61.88853516 44.91210938 61.90234375 C46.60822395 61.92573843 48.30415871 61.96160359 50 62 C49.56442084 63.47973345 49.12639904 64.95874785 48.6875 66.4375 C48.42195312 67.34757812 48.15640625 68.25765625 47.8828125 69.1953125 C47 72 47 72 45.9921875 74.4921875 C45.53199219 75.64074219 45.53199219 75.64074219 45.0625 76.8125 C44.76472656 77.49957031 44.46695313 78.18664062 44.16015625 78.89453125 C43.91305724 82.14297924 45.9922754 83.54245732 48 86 C50.06815667 93.44341292 50.3123111 101.31367685 50 109 C50.66 109 51.32 109 52 109 C52.05823729 113.5416125 52.09367675 118.0831284 52.125 122.625 C52.14175781 123.91019531 52.15851563 125.19539063 52.17578125 126.51953125 C52.18222656 127.76347656 52.18867188 129.00742188 52.1953125 130.2890625 C52.20578613 131.43068848 52.21625977 132.57231445 52.22705078 133.74853516 C51.99052625 137.13566817 51.2095701 139.84005042 50 143 C49.67 143 49.34 143 49 143 C48.95101562 141.83082031 48.90203125 140.66164062 48.8515625 139.45703125 C48.77649829 137.90883196 48.70095205 136.36065599 48.625 134.8125 C48.57859375 133.65911133 48.57859375 133.65911133 48.53125 132.48242188 C48.31383889 128.26102289 47.90256928 124.85927672 46 121 C45.01 121 44.02 121 43 121 C42.98018066 121.6705542 42.96036133 122.3411084 42.93994141 123.03198242 C42.84440285 126.08420161 42.73484055 129.13576341 42.625 132.1875 C42.5940625 133.24259766 42.563125 134.29769531 42.53125 135.38476562 C42.49257812 136.40634766 42.45390625 137.42792969 42.4140625 138.48046875 C42.36693115 139.88655396 42.36693115 139.88655396 42.31884766 141.32104492 C41.97977169 144.16995808 41.17742543 146.39520444 40 149 C37 147 37 147 36.31860352 145.33691406 C35.87440794 142.07879908 35.88929533 138.89757726 35.90234375 135.609375 C35.9037587 134.90476135 35.90517365 134.20014771 35.90663147 133.47418213 C35.91221067 131.23274416 35.92475927 128.99140757 35.9375 126.75 C35.94251769 125.22656395 35.94708013 123.70312632 35.95117188 122.1796875 C35.96217326 118.45309228 35.97942354 114.72655604 36 111 C34.31200482 114.6887684 33.75168166 117.58727066 33.7265625 121.6328125 C33.7059375 122.68597656 33.6853125 123.73914063 33.6640625 124.82421875 C33.63792932 127.03247269 33.61975518 129.24083457 33.609375 131.44921875 C33.58617187 132.49980469 33.56296875 133.55039063 33.5390625 134.6328125 C33.53084473 135.59074707 33.52262695 136.54868164 33.51416016 137.53564453 C33 140 33 140 30.96630859 141.83544922 C29.99298584 142.41190186 29.99298584 142.41190186 29 143 C26.87491756 139.81237635 26.4979837 137.73487777 26 134 C25.443125 134.928125 24.88625 135.85625 24.3125 136.8125 C21.94587084 140.07461046 20.69157008 141.48981224 17 143 C12.86441442 143.44575174 9.0049035 143.10603126 5 142 C4.93941406 142.96421875 4.87882812 143.9284375 4.81640625 144.921875 C4.69072266 146.81679688 4.69072266 146.81679688 4.5625 148.75 C4.44068359 150.62945312 4.44068359 150.62945312 4.31640625 152.546875 C4.07484478 155.18317553 3.75716066 157.48037294 3 160 C3.98742187 160.12117187 4.97484375 160.24234375 5.9921875 160.3671875 C7.91417969 160.61855469 7.91417969 160.61855469 9.875 160.875 C11.78925781 161.11863281 11.78925781 161.11863281 13.7421875 161.3671875 C17 162 17 162 19 164 C19.51999304 168.97959436 19.29205445 174.15479581 18 179 C18.66 179.33 19.32 179.66 20 180 C19.98839844 178.71222656 19.97679687 177.42445313 19.96484375 176.09765625 C19.9554673 174.41927228 19.94636695 172.74088674 19.9375 171.0625 C19.92493164 169.78729492 19.92493164 169.78729492 19.91210938 168.48632812 C19.90888672 167.67744141 19.90566406 166.86855469 19.90234375 166.03515625 C19.89710693 165.2862915 19.89187012 164.53742676 19.88647461 163.76586914 C20 162 20 162 21 161 C22.74512131 160.90048265 24.4942321 160.86919697 26.2421875 160.8671875 C27.30824219 160.86589844 28.37429687 160.86460937 29.47265625 160.86328125 C31.15681641 160.86908203 31.15681641 160.86908203 32.875 160.875 C34.54755859 160.86919922 34.54755859 160.86919922 36.25390625 160.86328125 C37.85685547 160.86521484 37.85685547 160.86521484 39.4921875 160.8671875 C40.47558105 160.86831543 41.45897461 160.86944336 42.47216797 160.87060547 C45 161 45 161 48 162 C47.55882509 165.5293993 46.82015315 168.55804755 45.4375 171.8125 C43.6759893 176.2333788 43.70632553 180.30120852 44 185 C37.25 186.125 37.25 186.125 35 185 C35.02320313 184.27554688 35.04640625 183.55109375 35.0703125 182.8046875 C35.26521176 175.19103639 35.26521176 175.19103639 33 168 C31.515 167.01 31.515 167.01 30 166 C30 172.27 30 178.54 30 185 C27.49502996 186.25248502 25.79146726 186.11374406 22.9921875 186.09765625 C22.00605469 186.09443359 21.01992187 186.09121094 20.00390625 186.08789062 C18.97136719 186.07951172 17.93882812 186.07113281 16.875 186.0625 C15.31458984 186.05573242 15.31458984 186.05573242 13.72265625 186.04882812 C11.14838038 186.03701952 8.57421854 186.02055075 6 186 C6 188.31 6 190.62 6 193 C6.66 192.67 7.32 192.34 8 192 C12.12283093 191.76621115 16.2472708 191.77163469 20.3762207 191.75976562 C22.42635563 191.7500528 24.47549074 191.71902555 26.52539062 191.6875 C27.81509766 191.68234375 29.10480469 191.6771875 30.43359375 191.671875 C31.62009521 191.6625293 32.80659668 191.65318359 34.02905273 191.64355469 C37 192 37 192 38.87841797 193.35180664 C40.50704373 195.74511368 40.5190578 197.82398262 40.6875 200.6875 C40.75324219 201.68136719 40.81898438 202.67523438 40.88671875 203.69921875 C40.92410156 204.45847656 40.96148437 205.21773437 41 206 C37.286007 208.47599533 35.29282091 208.23739325 30.875 208.1875 C29.61429687 208.18105469 28.35359375 208.17460937 27.0546875 208.16796875 C24 208 24 208 23 207 C22.95907063 204.66702567 22.95758277 202.33294775 23 200 C22.01 200 21.02 200 20 200 C20.185625 201.134375 20.37125 202.26875 20.5625 203.4375 C20.7790625 205.2009375 20.7790625 205.2009375 21 207 C20 208 20 208 16.62109375 208.09765625 C15.22652923 208.09098369 13.83198257 208.07902532 12.4375 208.0625 C11.37112305 208.05573242 11.37112305 208.05573242 10.28320312 208.04882812 C8.52209987 208.03700864 6.76103964 208.01907263 5 208 C4.01 205.525 4.01 205.525 3 203 C2.62875 204.2065625 2.62875 204.2065625 2.25 205.4375 C1 208 1 208 -1 208.9375 C-1.99 208.9684375 -1.99 208.9684375 -3 209 C-5 207 -5 207 -5.1953125 204.8359375 C-5.17210938 204.02382812 -5.14890625 203.21171875 -5.125 202.375 C-5.10695313 201.55773437 -5.08890625 200.74046875 -5.0703125 199.8984375 C-5.04710938 199.27195313 -5.02390625 198.64546875 -5 198 C-6.65 197.67 -8.3 197.34 -10 197 C-10.3125 193.75 -10.3125 193.75 -10 190 C-7.9375 187.5625 -7.9375 187.5625 -5 186 C-1.1875 185.75 -1.1875 185.75 2 186 C2 182.7 2 179.4 2 176 C-0.7283768 176 -3.31654063 176.53331141 -6 177 C-5.814375 178.299375 -5.62875 179.59875 -5.4375 180.9375 C-5.12109375 183.15234375 -5.12109375 183.15234375 -5 185 C-6 186 -6 186 -8.06640625 186.09765625 C-9.30197266 186.08025391 -9.30197266 186.08025391 -10.5625 186.0625 C-11.38878906 186.05347656 -12.21507813 186.04445312 -13.06640625 186.03515625 C-13.70449219 186.02355469 -14.34257813 186.01195312 -15 186 C-16.62961813 181.195023 -15.62228167 176.36174273 -15.15625 171.41015625 C-14.86067631 168.07750265 -14.86067631 168.07750265 -15.59375 165.18359375 C-15.79484375 164.10271484 -15.79484375 164.10271484 -16 163 C-14 161 -14 161 -11.1796875 160.8046875 C-10.08914062 160.82789063 -8.99859375 160.85109375 -7.875 160.875 C-6.77929688 160.89304688 -5.68359375 160.91109375 -4.5546875 160.9296875 C-3.71164063 160.95289063 -2.86859375 160.97609375 -2 161 C-1.80444068 158.27119539 -1.61829553 155.54228931 -1.4375 152.8125 C-1.38142578 152.04357422 -1.32535156 151.27464844 -1.26757812 150.48242188 C-1.00858443 146.45938647 -0.93426393 142.93927628 -2 139 C-2.59167969 138.81824219 -3.18335937 138.63648438 -3.79296875 138.44921875 C-12.90146193 135.55173723 -12.90146193 135.55173723 -16 133 C-17.03485877 130.68191636 -18.0355414 128.34824702 -19 126 C-21.89271758 123.10728242 -25.1173586 122.14714405 -29 121 C-29.33 119.35 -29.66 117.7 -30 116 C-33.3 115.01 -36.6 114.02 -40 113 C-39.69964844 114.04800781 -39.39929688 115.09601563 -39.08984375 116.17578125 C-38.70528535 117.55456379 -38.32119511 118.93347697 -37.9375 120.3125 C-37.73833984 121.00279297 -37.53917969 121.69308594 -37.33398438 122.40429688 C-35.88671875 127.66015625 -35.88671875 127.66015625 -37 131 C-40.09314661 132.96836602 -42.05011616 134.06476481 -45.75 133.8125 C-48 133 -48 133 -50 131 C-50.58532192 128.30459256 -51.07513232 125.65821493 -51.5 122.9375 C-51.75501338 121.395585 -52.01151216 119.85391489 -52.26953125 118.3125 C-52.39279785 117.57 -52.51606445 116.8275 -52.64306641 116.0625 C-53.28726754 112.34005732 -54.13128103 108.67534948 -55 105 C-55.886875 105.495 -56.77375 105.99 -57.6875 106.5 C-60.87586238 107.94378674 -62.58187546 108.30159922 -66 108 C-66.22429687 108.51046875 -66.44859375 109.0209375 -66.6796875 109.546875 C-68.53605381 112.99598163 -70.82730426 116.08342773 -73.125 119.25 C-73.82689453 120.22453125 -73.82689453 120.22453125 -74.54296875 121.21875 C-75.69274282 122.81435483 -76.84602566 124.40743025 -78 126 C-79 123 -79 123 -77.7421875 120.4765625 C-72.09388274 111.85049038 -72.09388274 111.85049038 -69 109.0625 C-68.34 108.381875 -67.68 107.70125 -67 107 C-67.35898811 105.09843746 -67.35898811 105.09843746 -68 103 C-68.06548492 101.41788427 -68.08578381 99.83329919 -68.0625 98.25 C-68.05347656 97.45078125 -68.04445313 96.6515625 -68.03515625 95.828125 C-68.02355469 95.22484375 -68.01195312 94.6215625 -68 94 C-70.79272595 93.84484856 -72.59402625 93.79701313 -75.125 95.0625 C-77 96 -77 96 -80 95 C-78.4797598 94.08234998 -76.95877255 93.16593757 -75.4375 92.25 C-74.53 91.70214844 -73.6225 91.15429688 -72.6875 90.58984375 C-70.46145977 89.27298565 -68.21673061 88.03283805 -65.9375 86.8125 C-62.7333839 85.26900193 -62.7333839 85.26900193 -62 82 C-62.33378738 80.02876335 -62.33378738 80.02876335 -63.03125 77.9453125 C-63.26457031 77.16542969 -63.49789062 76.38554688 -63.73828125 75.58203125 C-64.24388458 73.9511364 -64.75167864 72.32091901 -65.26171875 70.69140625 C-67.46415859 63.30532347 -67.46415859 63.30532347 -66 59 C-66.66 59 -67.32 59 -68 59 C-68.28875 58.401875 -68.5775 57.80375 -68.875 57.1875 C-70.04742026 54.80672208 -70.04742026 54.80672208 -72 52 C-73.32165997 44.30452825 -73.15504976 37.47929033 -71 30 C-68.18865322 30.31237186 -66.32545282 30.77376289 -63.98828125 32.3984375 C-60.98617291 36.32653997 -60.4105018 40.59189353 -59.4375 45.375 C-58.1799611 51.38462487 -56.91557504 56.54069137 -54 62 C-54 62.99 -54 63.98 -54 65 C-53.18982422 64.29423828 -53.18982422 64.29423828 -52.36328125 63.57421875 C-46.75884769 59.84101755 -37.56080221 59.33053039 -31 60 C-25.89790838 62.01710599 -24.48306487 65.37636198 -22 70 C-21.01 70.495 -21.01 70.495 -20 71 C-20.10828125 70.09507813 -20.10828125 70.09507813 -20.21875 69.171875 C-20.3115625 68.37265625 -20.404375 67.5734375 -20.5 66.75 C-20.5928125 65.96109375 -20.685625 65.1721875 -20.78125 64.359375 C-21 62 -21 62 -21 58 C-21.15399514 55.41508164 -21.31933582 52.83300945 -21.5 50.25 C-21.54769531 49.55261719 -21.59539062 48.85523438 -21.64453125 48.13671875 C-21.76181363 46.42439605 -21.88074324 44.71218632 -22 43 C-19.525 42.505 -19.525 42.505 -17 42 C-18.60622899 37.41077431 -19.97109451 33.81905475 -23 30 C-25.21722736 25.79893763 -25.79202889 21.66327212 -25 17 C-22.44192186 9.97057039 -19.47146863 5.18030288 -12.63671875 1.84765625 C-4.90859417 -1.55271856 -4.90859417 -1.55271856 0 0 Z M-5 16 C-3.02 16 -1.04 16 1 16 C1 15.01 1 14.02 1 13 C-1.76223278 13 -2.89281454 14.31425163 -5 16 Z M-10 29 C-9.67 29.99 -9.34 30.98 -9 32 C-8.01 31.67 -7.02 31.34 -6 31 C-6.33 30.34 -6.66 29.68 -7 29 C-7.99 29 -8.98 29 -10 29 Z M6 42 C6.66 42.66 7.32 43.32 8 44 C8 43.34 8 42.68 8 42 C7.34 42 6.68 42 6 42 Z M-52 69 C-52.85974801 71.29294488 -52.85974801 71.29294488 -53 74 C-51.16641665 76.33454661 -51.16641665 76.33454661 -49 78 C-48.01 77.34 -47.02 76.68 -46 76 C-46.5590888 72.75728494 -47.4132178 71.06942576 -50 69 C-50.66 69 -51.32 69 -52 69 Z M-42 69 C-39.24844614 73.65647576 -36.82545236 76.2725704 -32 79 C-31.34 79 -30.68 79 -30 79 C-31.43699955 73.97050156 -33.82610835 71.92172415 -38 69 C-39.32 69 -40.64 69 -42 69 Z M-17 76 C-17.16687448 78.58354218 -17.16687448 78.58354218 -17 81 C-15.35 81 -13.7 81 -12 81 C-12.60183749 83.02045442 -13.27306096 85.02111039 -14 87 C-14.99 87.495 -14.99 87.495 -16 88 C-15.690625 88.5775 -15.38125 89.155 -15.0625 89.75 C-13.60971783 92.82647989 -13.05316198 95.63546073 -12.5625 99 C-12.05140103 101.72586119 -11.37350591 103.61925643 -10 106 C-11.2684375 107.11375 -11.2684375 107.11375 -12.5625 108.25 C-13.366875 109.1575 -14.17125 110.065 -15 111 C-14.95502158 113.27523089 -14.95502158 113.27523089 -14 115 C-11.01855407 115.55468762 -8.22509466 116 -5.1875 116 C-4.465625 116 -3.74375 116 -3 116 C-0.95301586 118.04698414 -1.29954307 122.30411241 -1 125 C0.485 124.505 0.485 124.505 2 124 C2.33 120.7 2.66 117.4 3 114 C4.65 114.33 6.3 114.66 8 115 C10.58777208 111.94419026 10.58777208 111.94419026 11 108 C9.02 108 7.04 108 5 108 C5.020625 106.865625 5.04125 105.73125 5.0625 104.5625 C5.41577477 101.18424326 5.41577477 101.18424326 4 100 C3.28805621 92.88056206 3.28805621 92.88056206 6.375 89.0625 C9 87 9 87 11 86 C12.26266271 81.10752775 12.26266271 81.10752775 10.5625 76.5625 C10.046875 76.046875 9.53125 75.53125 9 75 C5.26681699 75.43075189 3.33901044 77.36594997 0.59375 79.7890625 C-1.72904458 81.55393093 -4.20548807 82.26810402 -7 83 C-6.67 80.69 -6.34 78.38 -6 76 C-9.89003599 73.40664267 -13.47919215 72.47919215 -17 76 Z M-32 94 C-32.33 95.65 -32.66 97.3 -33 99 C-33.66 99 -34.32 99 -35 99 C-35.33 101.64 -35.66 104.28 -36 107 C-33.03 107.99 -30.06 108.98 -27 110 C-24.71012192 108.12782652 -24.71012192 108.12782652 -24.6875 105.125 C-25.0359229 101.640771 -25.7570561 100.58801219 -28 98 C-28.69580267 96.68163705 -29.37224433 95.35208914 -30 94 C-30.66 94 -31.32 94 -32 94 Z M32 96 C27.57933544 97.85667911 23.27065717 99.81259023 19 102 C19 103.65 19 105.3 19 107 C20.0725 107.70125 21.145 108.4025 22.25 109.125 C22.85328125 109.51945312 23.4565625 109.91390625 24.078125 110.3203125 C26.02022327 111.21645162 26.02022327 111.21645162 28.12109375 110.390625 C30.46379186 108.65673617 30.95416872 107.38818412 31.8125 104.625 C32.06644531 103.85414063 32.32039063 103.08328125 32.58203125 102.2890625 C33.03167033 99.82655314 32.78898188 98.35084396 32 96 Z M-64 103 C-63 105 -63 105 -63 105 Z M-47 111 C-46 114 -46 114 -46 114 Z M14 117 C9.70145086 121.77616571 9.80763743 124.94057891 10 131 C9 134 9 134 8 136 C11.30567489 136.85387105 11.30567489 136.85387105 15 137 C19.07787187 134.32025563 21.3854296 129.52801307 23 125 C23.19488739 122.21294363 23.19488739 122.21294363 22 120 C20.26961928 118.09798258 20.26961928 118.09798258 18 117 C16.68 117 15.36 117 14 117 Z M-6 124 C-4.515 124.99 -4.515 124.99 -3 126 C-3 125.34 -3 124.68 -3 124 C-3.99 124 -4.98 124 -6 124 Z M2 167 C3 170 3 170 3 170 Z " fill="#030201" transform="translate(123,45)"/>
<path d="M0 0 C1.58133737 1.50123695 3.14438096 3.02200531 4.6875 4.5625 C5.44546875 5.30886719 6.2034375 6.05523437 6.984375 6.82421875 C27.92966385 28.67232178 31.16761042 54.93505552 31.0859375 83.875 C31.08796281 86.4183765 31.09087803 88.96175242 31.09463501 91.50512695 C31.09903683 96.8137015 31.09298989 102.12211875 31.07861328 107.43066406 C31.06229316 113.52638898 31.06758407 119.62181262 31.0840925 125.71753025 C31.09946355 131.6351472 31.0976886 137.55267241 31.0889473 143.4703064 C31.08696131 145.96430505 31.08934754 148.45831151 31.09638596 150.95230103 C31.16138403 180.44926943 26.11147773 204.75964163 4.6875 226.5625 C3.8521875 227.41328125 3.016875 228.2640625 2.15625 229.140625 C-16.67632302 247.61561752 -39.31802272 253.86089962 -65.17333984 253.87719727 C-91.4913587 253.56681728 -113.52845446 243.12246482 -131.98828125 224.49414062 C-152.84809322 202.47787465 -155.79459094 175.2932808 -155.67578125 146.265625 C-155.67526143 143.73891195 -155.67578383 141.21219849 -155.67729187 138.68548584 C-155.67720266 133.41738839 -155.66722406 128.14940805 -155.64868164 122.88134766 C-155.62747961 116.82365015 -155.62401736 110.7661424 -155.6302436 104.70841527 C-155.6359701 98.83189859 -155.63014729 92.95544868 -155.61907005 87.07894135 C-155.61524298 84.5992128 -155.6140594 82.11947861 -155.6156559 79.63974762 C-155.61602977 76.16890376 -155.6033182 72.69834045 -155.5871582 69.22753906 C-155.58963562 68.22048416 -155.59211304 67.21342926 -155.59466553 66.17585754 C-155.42008554 42.49539167 -145.88131863 21.24345748 -129.33984375 4.49609375 C-94.37644041 -29.75761792 -37.17017703 -32.41651803 0 0 Z M-126.3125 12.5625 C-146.13045472 35.57350338 -148.46997822 61.00961537 -148.48046875 90.328125 C-148.48368849 92.45123313 -148.48705308 94.57434105 -148.49055481 96.69744873 C-148.49652021 101.1353812 -148.49839738 105.57329427 -148.49780273 110.01123047 C-148.49770126 115.6604638 -148.51135057 121.30957105 -148.52857494 126.95877457 C-148.53976626 131.34119218 -148.54171976 135.72358 -148.54119301 140.10601044 C-148.54236251 142.18693221 -148.54672544 144.26785503 -148.55452538 146.34876251 C-148.65260013 175.21404655 -144.10181619 199.2513366 -123.8125 221.1171875 C-104.90913945 239.60703704 -81.9368294 245.05593423 -56.34765625 244.7734375 C-32.62850012 244.17742334 -12.58923314 233.42982578 3.6875 216.5625 C18.11340306 199.10097861 23.84397553 178.6514505 23.83276367 156.3996582 C23.83612228 155.42596786 23.8394809 154.45227753 23.84294128 153.44908142 C23.85238202 150.25380145 23.85439103 147.05857428 23.85546875 143.86328125 C23.85868649 141.62281778 23.86205094 139.38235452 23.86555481 137.14189148 C23.87152918 132.45241815 23.87339649 127.7629632 23.87280273 123.07348633 C23.8727013 117.0967669 23.88634209 111.12016675 23.90357494 105.14347553 C23.91475445 100.51661143 23.91672011 95.88977561 23.91619301 91.2628994 C23.91736461 89.06113462 23.92173971 86.8593689 23.92952538 84.65761757 C24.01035028 59.43715383 21.31605903 36.78315067 4.6875 16.5625 C4.11515625 15.84449219 3.5428125 15.12648438 2.953125 14.38671875 C-10.41203663 -1.60177006 -30.63101468 -11.58092505 -51.3125 -13.4375 C-79.64778863 -14.9056057 -106.35655021 -8.89654217 -126.3125 12.5625 Z " fill="#0B9F59" transform="translate(173.3125,39.4375)"/>
<path d="M0 0 C1.68516954 1.68516954 1.13008019 3.78767788 1.1328125 6.09375 C1.13474609 7.63869141 1.13474609 7.63869141 1.13671875 9.21484375 C1.13285156 10.29894531 1.12898438 11.38304687 1.125 12.5 C1.13080078 14.12615234 1.13080078 14.12615234 1.13671875 15.78515625 C1.13542969 16.81511719 1.13414063 17.84507812 1.1328125 18.90625 C1.13168457 19.85822266 1.13055664 20.81019531 1.12939453 21.79101562 C1 24 1 24 0 25 C-1.818122 25.09964888 -3.64008784 25.13080495 -5.4609375 25.1328125 C-7.12769531 25.13474609 -7.12769531 25.13474609 -8.828125 25.13671875 C-9.99859375 25.13285156 -11.1690625 25.12898438 -12.375 25.125 C-14.11910156 25.13080078 -14.11910156 25.13080078 -15.8984375 25.13671875 C-17.5690625 25.13478516 -17.5690625 25.13478516 -19.2734375 25.1328125 C-20.29872559 25.13168457 -21.32401367 25.13055664 -22.38037109 25.12939453 C-25 25 -25 25 -28 24 C-27.21625 24.78375 -26.4325 25.5675 -25.625 26.375 C-24.08333333 27.91666667 -22.54166667 29.45833333 -21 31 C-18.77871445 31.02308597 -18.77871445 31.02308597 -16.375 30.625 C-15.14910156 30.45871094 -15.14910156 30.45871094 -13.8984375 30.2890625 C-13.27195312 30.19367188 -12.64546875 30.09828125 -12 30 C-11.505 28.515 -11.505 28.515 -11 27 C-9.35 26.67 -7.7 26.34 -6 26 C-5.50693359 27.23363281 -5.50693359 27.23363281 -5.00390625 28.4921875 C-4.34261719 29.31976563 -3.68132812 30.14734375 -3 31 C-0.1148853 31.29668546 2.21428348 31.34157526 5.0625 31.125 C7.7541651 30.94981687 10.2922342 30.91160721 13 31 C16.21477137 35.82215706 15.62708094 41.63603308 14.58203125 47.2421875 C13.3717765 51.6282235 13.3717765 51.6282235 12 53 C9.66702567 53.04092937 7.33294775 53.04241723 5 53 C3.66416101 48.15758367 2.74671881 44.06562383 3 39 C2.01 39.495 2.01 39.495 1 40 C1.020625 40.969375 1.04125 41.93875 1.0625 42.9375 C1 46 1 46 0 47 C-2.5113943 47.10165167 -4.9887278 47.14075171 -7.5 47.125 C-8.22960937 47.12306641 -8.95921875 47.12113281 -9.7109375 47.11914062 C-14.20319195 47.08317062 -18.58219659 46.83877092 -23.03515625 46.21484375 C-25.19288822 45.97890884 -27.26887484 46.00451537 -29.4375 46.0625 C-33 46 -33 46 -35 44 C-35.144375 42.845 -35.28875 41.69 -35.4375 40.5 C-35.623125 39.345 -35.80875 38.19 -36 37 C-36.99 36.34 -37.98 35.68 -39 35 C-38.875 32.25 -38.875 32.25 -38 29 C-34.9375 26.625 -34.9375 26.625 -32 25 C-33.65 24.01 -35.3 23.02 -37 22 C-37.33 22.66 -37.66 23.32 -38 24 C-40.31 23.67 -42.62 23.34 -45 23 C-44.69257097 20.68682039 -44.37892298 18.37446648 -44.0625 16.0625 C-43.88847656 14.77472656 -43.71445312 13.48695313 -43.53515625 12.16015625 C-43 9 -43 9 -42 8 C-41.63239269 5.67182036 -41.29758419 3.3381615 -41 1 C-38.03 1 -35.06 1 -32 1 C-32.061875 2.0725 -32.12375 3.145 -32.1875 4.25 C-31.98029365 8.39412697 -31.43498349 8.90944404 -29 12 C-28.34 14.64 -27.68 17.28 -27 20 C-26.67 13.73 -26.34 7.46 -26 1 C-13.375 0.75 -13.375 0.75 -10 3 C-9.671875 4.98828125 -9.671875 4.98828125 -9.75 7.3125 C-9.77320313 8.116875 -9.79640625 8.92125 -9.8203125 9.75 C-10 12 -10 12 -10.625 14.8125 C-11.29136325 17.40378933 -11.29136325 17.40378933 -9 21 C-8.67 14.4 -8.34 7.8 -8 1 C-5.26752652 -0.36623674 -3.01801098 -0.128426 0 0 Z M-30 31 C-30.16681109 33.91652174 -30.16681109 33.91652174 -30 37 C-29.34 37.66 -28.68 38.32 -28 39 C-27.21717352 37.20800528 -27.21717352 37.20800528 -27 35 C-28.3516367 32.75244247 -28.3516367 32.75244247 -30 31 Z " fill="#11100E" transform="translate(96,206)"/>
<path d="M0 0 C1.72880982 -0.05449838 3.45812712 -0.09301688 5.1875 -0.125 C6.15042969 -0.14820313 7.11335938 -0.17140625 8.10546875 -0.1953125 C11.37755561 0.02547609 14.59681294 0.59681294 17 3 C17.31718286 8.03761016 17.30677037 13.09961113 16 18 C16.66 18.33 17.32 18.66 18 19 C17.98839844 17.71222656 17.97679687 16.42445313 17.96484375 15.09765625 C17.9554673 13.41927228 17.94636695 11.74088674 17.9375 10.0625 C17.92912109 9.21236328 17.92074219 8.36222656 17.91210938 7.48632812 C17.90727539 6.27299805 17.90727539 6.27299805 17.90234375 5.03515625 C17.89448853 3.91185913 17.89448853 3.91185913 17.88647461 2.76586914 C18 1 18 1 19 0 C20.74512131 -0.09951735 22.4942321 -0.13080303 24.2421875 -0.1328125 C25.30824219 -0.13410156 26.37429687 -0.13539063 27.47265625 -0.13671875 C29.15681641 -0.13091797 29.15681641 -0.13091797 30.875 -0.125 C32.54755859 -0.13080078 32.54755859 -0.13080078 34.25390625 -0.13671875 C35.85685547 -0.13478516 35.85685547 -0.13478516 37.4921875 -0.1328125 C38.47558105 -0.13168457 39.45897461 -0.13055664 40.47216797 -0.12939453 C43 0 43 0 46 1 C45.55882509 4.5293993 44.82015315 7.55804755 43.4375 10.8125 C41.6759893 15.2333788 41.70632553 19.30120852 42 24 C35.25 25.125 35.25 25.125 33 24 C33.02320313 23.27554688 33.04640625 22.55109375 33.0703125 21.8046875 C33.26521176 14.19103639 33.26521176 14.19103639 31 7 C30.01 6.34 29.02 5.68 28 5 C28 11.27 28 17.54 28 24 C25.49502996 25.25248502 23.79146726 25.11374406 20.9921875 25.09765625 C20.00605469 25.09443359 19.01992187 25.09121094 18.00390625 25.08789062 C16.97136719 25.07951172 15.93882812 25.07113281 14.875 25.0625 C13.31458984 25.05573242 13.31458984 25.05573242 11.72265625 25.04882812 C9.14838038 25.03701952 6.57421854 25.02055075 4 25 C4 27.31 4 29.62 4 32 C4.66 31.67 5.32 31.34 6 31 C10.12283093 30.76621115 14.2472708 30.77163469 18.3762207 30.75976562 C20.42635563 30.7500528 22.47549074 30.71902555 24.52539062 30.6875 C25.81509766 30.68234375 27.10480469 30.6771875 28.43359375 30.671875 C30.21334595 30.65785645 30.21334595 30.65785645 32.02905273 30.64355469 C35 31 35 31 36.87841797 32.35180664 C38.50704373 34.74511368 38.5190578 36.82398262 38.6875 39.6875 C38.78611328 41.17830078 38.78611328 41.17830078 38.88671875 42.69921875 C38.94279297 43.83810547 38.94279297 43.83810547 39 45 C35.286007 47.47599533 33.29282091 47.23739325 28.875 47.1875 C27.61429688 47.18105469 26.35359375 47.17460937 25.0546875 47.16796875 C22 47 22 47 21 46 C20.95907063 43.66702567 20.95758277 41.33294775 21 39 C20.01 39 19.02 39 18 39 C18.185625 40.134375 18.37125 41.26875 18.5625 42.4375 C18.706875 43.613125 18.85125 44.78875 19 46 C18 47 18 47 14.62109375 47.09765625 C13.22652923 47.09098369 11.83198257 47.07902532 10.4375 47.0625 C9.72658203 47.05798828 9.01566406 47.05347656 8.28320312 47.04882812 C6.52209987 47.03700864 4.76103964 47.01907263 3 47 C2.34 45.35 1.68 43.7 1 42 C0.7525 42.804375 0.505 43.60875 0.25 44.4375 C-1 47 -1 47 -3 47.9375 C-3.66 47.958125 -4.32 47.97875 -5 48 C-7 46 -7 46 -7.1953125 43.8359375 C-7.16050781 42.61777344 -7.16050781 42.61777344 -7.125 41.375 C-7.10695313 40.55773437 -7.08890625 39.74046875 -7.0703125 38.8984375 C-7.03550781 37.95871094 -7.03550781 37.95871094 -7 37 C-8.65 36.67 -10.3 36.34 -12 36 C-12.3125 32.75 -12.3125 32.75 -12 29 C-9.9375 26.5625 -9.9375 26.5625 -7 25 C-3.1875 24.75 -3.1875 24.75 0 25 C-0.04125 23.906875 -0.0825 22.81375 -0.125 21.6875 C0 18 0 18 2 15 C1.68770276 13.66158328 1.35169068 12.32860925 1 11 C1.185625 10.13375 1.37125 9.2675 1.5625 8.375 C1.706875 7.59125 1.85125 6.8075 2 6 C1.34 5.34 0.68 4.68 0 4 C0 2.68 0 1.36 0 0 Z " fill="#0E0E0D" transform="translate(125,206)"/>
<path d="M0 0 C5.29810209 0.03435864 5.29810209 0.03435864 8.3125 2.1875 C10.82432044 6.06940431 11.0202337 8.65422824 10.6875 13.3125 C7.6875 15.3125 7.6875 15.3125 3.6875 15.3125 C3.9659375 17.2615625 3.9659375 17.2615625 4.25 19.25 C4.56640625 21.46484375 4.56640625 21.46484375 4.6875 23.3125 C3.6875 24.3125 3.6875 24.3125 1.62109375 24.41015625 C0.79738281 24.39855469 -0.02632813 24.38695312 -0.875 24.375 C-1.70128906 24.36597656 -2.52757813 24.35695312 -3.37890625 24.34765625 C-4.33603516 24.33025391 -4.33603516 24.33025391 -5.3125 24.3125 C-6.94211813 19.507523 -5.93478167 14.67424273 -5.46875 9.72265625 C-5.32796138 6.64994458 -5.65542931 4.28574486 -6.3125 1.3125 C-4.58665266 -0.41334734 -2.35040633 0.0591493 0 0 Z " fill="#121312" transform="translate(113.3125,206.6875)"/>
<path d="M0 0 C4.95 0 9.9 0 15 0 C15 7.26 15 14.52 15 22 C10.05 22 5.1 22 0 22 C0 14.74 0 7.48 0 0 Z M7 2 C6.67 3.32 6.34 4.64 6 6 C6.66 6 7.32 6 8 6 C7.67 4.68 7.34 3.36 7 2 Z M6 14 C6 15.65 6 17.3 6 19 C6.99 19.495 6.99 19.495 8 20 C8.33 19.01 8.66 18.02 9 17 C8.34 17 7.68 17 7 17 C7 16.34 7 15.68 7 15 C7.66 14.67 8.32 14.34 9 14 C8.01 14 7.02 14 6 14 Z " fill="#12120F" transform="translate(33,207)"/>
<path d="M0 0 C1.23556641 0.01740234 1.23556641 0.01740234 2.49609375 0.03515625 C3.32238281 0.04417969 4.14867187 0.05320313 5 0.0625 C5.63808594 0.07410156 6.27617187 0.08570313 6.93359375 0.09765625 C6.60359375 2.07765625 6.27359375 4.05765625 5.93359375 6.09765625 C6.59359375 6.09765625 7.25359375 6.09765625 7.93359375 6.09765625 C8.06636719 7.00128906 8.19914063 7.90492188 8.3359375 8.8359375 C8.51253906 10.01542969 8.68914062 11.19492188 8.87109375 12.41015625 C9.04511719 13.58191406 9.21914062 14.75367188 9.3984375 15.9609375 C9.85452406 19.11407028 9.85452406 19.11407028 10.93359375 22.09765625 C4.93359375 22.09765625 -1.06640625 22.09765625 -7.06640625 22.09765625 C-6.77765625 21.47890625 -6.48890625 20.86015625 -6.19140625 20.22265625 C-3.93943312 13.96717533 -2.89597849 7.74433873 -3.06640625 1.09765625 C-2.06640625 0.09765625 -2.06640625 0.09765625 0 0 Z M2.93359375 17.09765625 C3.93359375 20.09765625 3.93359375 20.09765625 3.93359375 20.09765625 Z " fill="#111210" transform="translate(177.06640625,206.90234375)"/>
<path d="M0 0 C3.14357771 1.45868246 6.00475866 3.26113638 8.92285156 5.12280273 C23.88907722 14.54533731 39.58317844 18.08298112 57.1875 18.625 C58.23486328 18.66367187 59.28222656 18.70234375 60.36132812 18.7421875 C62.90739113 18.83519437 65.45346963 18.92103284 68 19 C68 19.33 68 19.66 68 20 C42.61396771 20.40349483 42.61396771 20.40349483 31 18 C29.00102143 17.66059497 27.00125443 17.32571736 25 17 C24.01 19.475 24.01 19.475 23 22 C11.44278235 18.86583928 1.56613629 12.28146107 -7 4 C-6.34 3.67 -5.68 3.34 -5 3 C-4.1028125 3.9590625 -4.1028125 3.9590625 -3.1875 4.9375 C-1.09189663 7.20310389 -1.09189663 7.20310389 2 8 C2 8.66 2 9.32 2 10 C5.26545761 11.88391785 8.28111761 12.49287967 12 13 C12.66 12.01 13.32 11.02 14 10 C12.88625 9.71125 11.7725 9.4225 10.625 9.125 C7 8 7 8 5 6 C4.67 5.34 4.34 4.68 4 4 C3.34 4 2.68 4 2 4 C2 3.34 2 2.68 2 2 C1.34 2 0.68 2 0 2 C0 1.34 0 0.68 0 0 Z " fill="#129556" transform="translate(54,265)"/>
<path d="M0 0 C0.33 0 0.66 0 1 0 C2.63431693 7.62586275 3.29354667 14.87044964 3.2746582 22.65917969 C3.27976913 23.76810577 3.28488007 24.87703186 3.29014587 26.01956177 C3.30394629 29.65372244 3.30309205 33.28769138 3.30078125 36.921875 C3.30467387 39.47096831 3.3090097 42.02006098 3.31376648 44.56915283 C3.32120855 49.90159477 3.3210925 55.23396762 3.31567383 60.56640625 C3.30964432 66.69157264 3.32192995 72.81650872 3.3432439 78.94163585 C3.3631274 84.87845295 3.3660166 90.81520009 3.36250877 96.75205231 C3.36301873 99.25722036 3.36819454 101.76239234 3.37832069 104.26753998 C3.43474737 120.18031431 3.36934673 135.13819097 -3 150 C-3.77772405 147.66682784 -4.42415568 145.38564077 -5 143 C-6.32 143.33 -7.64 143.66 -9 144 C-8.34 140.7 -7.68 137.4 -7 134 C-6.67 134 -6.34 134 -6 134 C-5.505 136.475 -5.505 136.475 -5 139 C-3.68 138.67 -2.36 138.34 -1 138 C-0.93941406 137.21753906 -0.87882813 136.43507812 -0.81640625 135.62890625 C-0.73261719 134.61699219 -0.64882812 133.60507813 -0.5625 132.5625 C-0.48128906 131.55316406 -0.40007812 130.54382813 -0.31640625 129.50390625 C0 127 0 127 1 126 C1.09776581 124.55200591 1.12631726 123.0992704 1.12698364 121.64797974 C1.12980347 120.7085553 1.13262329 119.76913086 1.13552856 118.80123901 C1.13350433 117.76226471 1.1314801 116.72329041 1.12939453 115.65283203 C1.13114685 114.56510498 1.13289917 113.47737793 1.13470459 112.35668945 C1.1391264 108.74038117 1.13618355 105.12412133 1.1328125 101.5078125 C1.13348554 99.00536083 1.13445557 96.50290921 1.13571167 94.00045776 C1.13718917 88.74623109 1.13512747 83.49201713 1.13037109 78.23779297 C1.12493411 72.16152606 1.126687 66.08529273 1.1321975 60.00902665 C1.13728174 54.16937318 1.13674403 48.32973248 1.13381577 42.49007797 C1.13314719 40.00290802 1.1339725 37.51573722 1.13629532 35.02856827 C1.13882707 31.55434126 1.1349735 28.08017919 1.12939453 24.60595703 C1.13141876 23.57103119 1.13344299 22.53610535 1.13552856 21.46981812 C1.13270874 20.52475403 1.12988892 19.57968994 1.12698364 18.60598755 C1.12660662 17.78412523 1.12622959 16.96226292 1.12584114 16.11549568 C1.08039726 13.80896425 1.08039726 13.80896425 0 11 C-0.0685495 9.10529184 -0.08480372 7.2083166 -0.0625 5.3125 C-0.05347656 4.31863281 -0.04445312 3.32476562 -0.03515625 2.30078125 C-0.02355469 1.54152344 -0.01195312 0.78226562 0 0 Z " fill="#20975E" transform="translate(201,86)"/>
<path d="M0 0 C1.09054688 0.02320313 2.18109375 0.04640625 3.3046875 0.0703125 C4.40039062 0.08835938 5.49609375 0.10640625 6.625 0.125 C7.46804687 0.14820313 8.31109375 0.17140625 9.1796875 0.1953125 C8.1796875 3.1953125 8.1796875 3.1953125 6.1796875 5.1953125 C5.71962404 7.39782242 5.71962404 7.39782242 5.5546875 9.8203125 C5.47992188 10.63757813 5.40515625 11.45484375 5.328125 12.296875 C5.27914062 12.92335937 5.23015625 13.54984375 5.1796875 14.1953125 C5.8396875 14.5253125 6.4996875 14.8553125 7.1796875 15.1953125 C6.8496875 16.8453125 6.5196875 18.4953125 6.1796875 20.1953125 C4.3046875 20.8203125 4.3046875 20.8203125 2.1796875 21.1953125 C0.1796875 19.1953125 0.1796875 19.1953125 -0.015625 17.03125 C0.00757812 16.21914062 0.03078125 15.40703125 0.0546875 14.5703125 C0.07273437 13.75304687 0.09078125 12.93578125 0.109375 12.09375 C0.13257812 11.46726563 0.15578125 10.84078125 0.1796875 10.1953125 C-1.4703125 9.8653125 -3.1203125 9.5353125 -4.8203125 9.1953125 C-4.9453125 5.8203125 -4.9453125 5.8203125 -4.8203125 2.1953125 C-2.8203125 0.1953125 -2.8203125 0.1953125 0 0 Z " fill="#141513" transform="translate(117.8203125,232.8046875)"/>
<path d="M0 0 C3.375 1.1875 3.375 1.1875 5.375 3.375 C6.57265706 6.74341048 6.25120107 8.76235038 5.375 12.1875 C4.385 11.5275 3.395 10.8675 2.375 10.1875 C2.375 9.5275 2.375 8.8675 2.375 8.1875 C1.715 7.8575 1.055 7.5275 0.375 7.1875 C0.045 8.1775 -0.285 9.1675 -0.625 10.1875 C-2.605 10.5175 -4.585 10.8475 -6.625 11.1875 C-5.25 9.6875 -5.25 9.6875 -3.625 8.1875 C-2.965 8.1875 -2.305 8.1875 -1.625 8.1875 C-1.625 7.5275 -1.625 6.8675 -1.625 6.1875 C-7.07685773 7.5172214 -10.8512547 10.12197027 -14.625 14.1875 C-15.81761297 16.2894719 -15.81761297 16.2894719 -16.625 18.1875 C-14.975 18.1875 -13.325 18.1875 -11.625 18.1875 C-14.02009338 21.08682357 -15.93745243 21.68918276 -19.625 22.1875 C-19.70726668 19.14363276 -19.60108217 17.11574652 -18.625 14.1875 C-17.965 13.5275 -17.305 12.8675 -16.625 12.1875 C-16.9435177 10.07929203 -16.9435177 10.07929203 -17.625 8.1875 C-15.9375 6.625 -15.9375 6.625 -13.625 5.1875 C-10.875 5.5 -10.875 5.5 -8.625 6.1875 C-7.944375 5.176875 -7.26375 4.16625 -6.5625 3.125 C-4.21131693 0.29822149 -3.94951685 0.20428535 0 0 Z " fill="#0C0907" transform="translate(120.625,45.8125)"/>
<path d="M0 0 C12.625 -0.25 12.625 -0.25 16 2 C16.328125 3.98828125 16.328125 3.98828125 16.25 6.3125 C16.22550781 7.116875 16.20101562 7.92125 16.17578125 8.75 C15.98274332 11.22088548 15.48550088 13.57249559 15 16 C15.36856864 18.23167185 15.36856864 18.23167185 16 20 C14.29115995 18.37660195 12.62553283 16.70680947 11 15 C11 13 11 13 13 11 C13 9.68 13 8.36 13 7 C12.01 7 11.02 7 10 7 C10 7.66 10 8.32 10 9 C7.625 9.125 7.625 9.125 5 9 C4.34 8.34 3.68 7.68 3 7 C1.67770811 9.64458379 1.90322806 11.67761301 1.9375 14.625 C1.94652344 15.62789062 1.95554687 16.63078125 1.96484375 17.6640625 C1.97644531 18.43492187 1.98804687 19.20578125 2 20 C1.34 20 0.68 20 0 20 C0 13.4 0 6.8 0 0 Z " fill="#0C0C0B" transform="translate(70,207)"/>
<path d="M0 0 C0.33 0 0.66 0 1 0 C1.23074219 1.03898438 1.46148438 2.07796875 1.69921875 3.1484375 C3.43682335 10.67113712 5.24271303 17.42874103 9.14453125 24.1796875 C9.42683594 24.78039062 9.70914063 25.38109375 10 26 C9.67 26.66 9.34 27.32 9 28 C7.35 26.35 5.7 24.7 4 23 C2.62462472 26.01234614 2.62462472 26.01234614 4.25 28.875 C5.36377784 30.863889 6.52618521 32.82686248 7.75 34.75 C8.1625 35.4925 8.575 36.235 9 37 C8.67 37.66 8.34 38.32 8 39 C1.36454816 30.10567094 -3.79677474 20.12629475 -5 9 C-4.67 9.99 -4.34 10.98 -4 12 C-2.35 12 -0.7 12 1 12 C0.835 11.505 0.67 11.01 0.5 10.5 C-0.20688818 6.96555911 -0.06005155 3.60309299 0 0 Z " fill="#14985A" transform="translate(26,215)"/>
<path d="M0 0 C-0.33 1.98 -0.66 3.96 -1 6 C-0.34 6.33 0.32 6.66 1 7 C1 10 1 10 0 13 C-4.46191933 13.39369876 -7.19544034 12.31581892 -11 10 C-13 8.125 -13 8.125 -14 6 C-13.625 3.375 -13.625 3.375 -12 1 C-7.66723719 -0.79850532 -4.51204577 -1.3672866 0 0 Z " fill="#050504" transform="translate(108,137)"/>
<path d="M0 0 C1.4540625 0.0309375 1.4540625 0.0309375 2.9375 0.0625 C2.6075 1.3825 2.2775 2.7025 1.9375 4.0625 C-0.3725 4.3925 -2.6825 4.7225 -5.0625 5.0625 C-5.0625 5.7225 -5.0625 6.3825 -5.0625 7.0625 C-8.0325 7.0625 -11.0025 7.0625 -14.0625 7.0625 C-14.0625 7.7225 -14.0625 8.3825 -14.0625 9.0625 C-16.0425 9.0625 -18.0225 9.0625 -20.0625 9.0625 C-20.0625 9.7225 -20.0625 10.3825 -20.0625 11.0625 C-22.9375 11.25 -22.9375 11.25 -26.0625 11.0625 C-26.7225 10.0725 -27.3825 9.0825 -28.0625 8.0625 C-27.423125 7.93875 -26.78375 7.815 -26.125 7.6875 C-25.444375 7.48125 -24.76375 7.275 -24.0625 7.0625 C-23.7325 6.4025 -23.4025 5.7425 -23.0625 5.0625 C-21.7425 5.0625 -20.4225 5.0625 -19.0625 5.0625 C-18.7325 4.0725 -18.4025 3.0825 -18.0625 2.0625 C-17.06347656 2.00191406 -16.06445312 1.94132812 -15.03515625 1.87890625 C-13.74480469 1.79511719 -12.45445313 1.71132813 -11.125 1.625 C-9.83722656 1.54378906 -8.54945312 1.46257813 -7.22265625 1.37890625 C-3.69545663 1.02575029 -3.51377698 0.07170973 0 0 Z " fill="#03A658" transform="translate(97.0625,19.9375)"/>
<path d="M0 0 C0.84820312 0.14308594 1.69640625 0.28617187 2.5703125 0.43359375 C6.00192112 1.00031727 9.43696464 1.5362701 12.875 2.0625 C14.02742188 2.23910156 15.17984375 2.41570312 16.3671875 2.59765625 C17.23601562 2.73042969 18.10484375 2.86320312 19 3 C19.12375 3.78375 19.2475 4.5675 19.375 5.375 C19.79117993 8.14057822 19.79117993 8.14057822 22 10 C19.66705225 10.04241723 17.33297433 10.04092937 15 10 C14.67 9.67 14.34 9.34 14 9 C11.31455654 8.43725235 8.63746613 7.91938977 5.9375 7.4375 C5.17888672 7.29892578 4.42027344 7.16035156 3.63867188 7.01757812 C1.75975025 6.67488173 -0.12004701 6.3369927 -2 6 C-1.34 4.02 -0.68 2.04 0 0 Z " fill="#04A559" transform="translate(79,281)"/>
<path d="M0 0 C0.33 0 0.66 0 1 0 C1.19594676 3.14536768 1.3803401 6.29130614 1.5625 9.4375 C1.61857422 10.33533203 1.67464844 11.23316406 1.73242188 12.15820312 C1.78076172 13.01220703 1.82910156 13.86621094 1.87890625 14.74609375 C1.9260376 15.53685303 1.97316895 16.3276123 2.02172852 17.14233398 C2 19 2 19 1 20 C-1.33297433 20.04092937 -3.66705225 20.04241723 -6 20 C-5.98839844 19.40832031 -5.97679688 18.81664062 -5.96484375 18.20703125 C-5.91677614 13.99768215 -5.93993117 10.1077667 -7 6 C-6.01 6 -5.02 6 -4 6 C-1.2160817 4.60804085 -1.02101003 2.84424221 0 0 Z " fill="#131210" transform="translate(107,239)"/>
<path d="M0 0 C0.66 0.33 1.32 0.66 2 1 C2 2.32 2 3.64 2 5 C1.34 5 0.68 5 0 5 C0.33 5.99 0.66 6.98 1 8 C0.05125 7.979375 -0.8975 7.95875 -1.875 7.9375 C-4.90666283 7.77448174 -4.90666283 7.77448174 -7 9 C-7.35412344 10.32796291 -7.68521554 11.66216607 -8 13 C-8.99 14.485 -8.99 14.485 -10 16 C-10.433125 16.886875 -10.86625 17.77375 -11.3125 18.6875 C-11.869375 19.450625 -12.42625 20.21375 -13 21 C-15.6875 21.3125 -15.6875 21.3125 -18 21 C-18 20.34 -18 19.68 -18 19 C-17.34 19 -16.68 19 -16 19 C-15.85304687 17.88625 -15.85304687 17.88625 -15.703125 16.75 C-14.91177919 13.65495863 -13.90374465 12.32229858 -11.75 10 C-11.1209375 9.31808594 -10.491875 8.63617188 -9.84375 7.93359375 C-9.2353125 7.29550781 -8.626875 6.65742187 -8 6 C-7.5153125 5.47535156 -7.030625 4.95070313 -6.53125 4.41015625 C-4.36029175 2.12667883 -3.04457073 1.01485691 0 0 Z " fill="#03A558" transform="translate(53,39)"/>
<path d="M0 0 C0 0.66 0 1.32 0 2 C-0.95712891 2.41572266 -0.95712891 2.41572266 -1.93359375 2.83984375 C-2.75988281 3.20207031 -3.58617187 3.56429688 -4.4375 3.9375 C-5.26121094 4.29714844 -6.08492187 4.65679687 -6.93359375 5.02734375 C-8.94410117 5.83122323 -8.94410117 5.83122323 -10 7 C-7.64046906 9.35953094 -6.22104383 9.49141413 -3 10 C-5.16099373 12.16099373 -6.5210418 12.71563716 -9.375 13.6875 C-10.14585937 13.95949219 -10.91671875 14.23148437 -11.7109375 14.51171875 C-14.20055308 15.04278009 -15.61553018 14.81115526 -18 14 C-17.34 14 -16.68 14 -16 14 C-16 12.68 -16 11.36 -16 10 C-15.34 10 -14.68 10 -14 10 C-14 9.34 -14 8.68 -14 8 C-14.99 8.165 -15.98 8.33 -17 8.5 C-21.02732942 9.08474517 -24.93474623 9.07132024 -29 9 C-29 8.67 -29 8.34 -29 8 C-27.88882813 7.75765625 -26.77765625 7.5153125 -25.6328125 7.265625 C-18.10320503 5.58278524 -10.8632359 3.89097999 -3.78515625 0.734375 C-2 0 -2 0 0 0 Z " fill="#0E9A55" transform="translate(153,275)"/>
<path d="M0 0 C5.49585235 -0.28925539 10.69378797 0.63097731 16 2 C16.33 2.33 16.66 2.66 17 3 C19.80976518 3.16017166 22.59773596 3.25950534 25.41015625 3.31640625 C26.25219101 3.33718735 27.09422577 3.35796844 27.96177673 3.37937927 C30.66193179 3.44496812 33.36218717 3.50380276 36.0625 3.5625 C37.88868241 3.60567637 39.71485454 3.64929036 41.54101562 3.69335938 C46.02723992 3.80065894 50.5135655 3.90189966 55 4 C55 4.33 55 4.66 55 5 C38.69440443 7.42807295 14.44001578 9.62667719 0 0 Z " fill="#1F8D55" transform="translate(77,287)"/>
<path d="M0 0 C2.6875 0.125 2.6875 0.125 4.5625 0.6875 C7.7165197 1.336857 10.54535502 0.66883279 13.6875 0.125 C13.6875 1.445 13.6875 2.765 13.6875 4.125 C13.0275 4.125 12.3675 4.125 11.6875 4.125 C12.6775 5.445 13.6675 6.765 14.6875 8.125 C10.35416667 8.125 6.02083333 8.125 1.6875 8.125 C0.6975 8.62 0.6975 8.62 -0.3125 9.125 C-0.498125 7.701875 -0.498125 7.701875 -0.6875 6.25 C-1.02937177 3.03832809 -1.02937177 3.03832809 -3.3125 1.125 C-2.3125 0.125 -2.3125 0.125 0 0 Z " fill="#131312" transform="translate(114.3125,170.875)"/>
<path d="M0 0 C5 1 5 1 7 3 C9.10820797 2.6814823 9.10820797 2.6814823 11 2 C9.06745228 4.0245738 7.36841312 5.42105792 5 7 C5.33 9.97 5.66 12.94 6 16 C-0.15234375 15.4140625 -0.15234375 15.4140625 -2 15 C-2.33 14.34 -2.66 13.68 -3 13 C-2.34 13 -1.68 13 -1 13 C-0.67 8.71 -0.34 4.42 0 0 Z " fill="#141414" transform="translate(111,215)"/>
<path d="M0 0 C7.06970306 0.4932351 13.60468225 3.02478696 20 6 C20.33 6.66 20.66 7.32 21 8 C18.41931567 7.48386313 15.86305714 6.96496811 13.3125 6.3125 C12.1678125 6.1578125 12.1678125 6.1578125 11 6 C10.34 6.66 9.68 7.32 9 8 C11.35953094 10.35953094 12.77895617 10.49141413 16 11 C16 11.66 16 12.32 16 13 C16.66 13 17.32 13 18 13 C18 13.66 18 14.32 18 15 C17.18273437 14.72414063 16.36546875 14.44828125 15.5234375 14.1640625 C11.57006672 12.85795996 7.60055234 11.61151899 3.625 10.375 C2.88894531 10.14554688 2.15289062 9.91609375 1.39453125 9.6796875 C-0.40348257 9.11926761 -2.20171847 8.55956029 -4 8 C-4 7.67 -4 7.34 -4 7 C-0.7 7 2.6 7 6 7 C6 6.01 6 5.02 6 4 C4.02 3.01 2.04 2.02 0 1 C0 0.67 0 0.34 0 0 Z " fill="#1E9D5B" transform="translate(134,20)"/>
<path d="M0 0 C1.9375 0.3125 1.9375 0.3125 4 1 C4.33 1.99 4.66 2.98 5 4 C3.35 4.66 1.7 5.32 0 6 C-0.02691685 8.45840605 -0.04679802 10.91651882 -0.0625 13.375 C-0.07087891 14.07367188 -0.07925781 14.77234375 -0.08789062 15.4921875 C-0.1835442 19.37295376 -0.1835442 19.37295376 1 23 C-0.9375 22.4375 -0.9375 22.4375 -3 21 C-3.37400786 18.67284 -3.70764733 16.33882138 -4 14 C-4.99 13.34 -5.98 12.68 -7 12 C-6.875 9.25 -6.875 9.25 -6 6 C-2.9375 3.75 -2.9375 3.75 0 2 C0 1.34 0 0.68 0 0 Z " fill="#12130B" transform="translate(64,229)"/>
<path d="M0 0 C1.98 0 3.96 0 6 0 C6 1.32 6 2.64 6 4 C6.99 4 7.98 4 9 4 C9 2.68 9 1.36 9 0 C10.65 0.33 12.3 0.66 14 1 C13.52949219 1.54140625 13.05898437 2.0828125 12.57421875 2.640625 C10.73777329 5.39301472 10.31616146 7.49557207 9.8125 10.75 C9.65394531 11.73484375 9.49539062 12.7196875 9.33203125 13.734375 C9.22246094 14.48203125 9.11289063 15.2296875 9 16 C8.34 14.68 7.68 13.36 7 12 C6.01 13.485 6.01 13.485 5 15 C4.49528803 13.23050388 3.99639315 11.45934777 3.5 9.6875 C3.2215625 8.70136719 2.943125 7.71523437 2.65625 6.69921875 C2 4 2 4 2 1 C1.34 0.67 0.68 0.34 0 0 Z " fill="#131513" transform="translate(156,208)"/>
<path d="M0 0 C-0.33 2.64 -0.66 5.28 -1 8 C-0.34 8 0.32 8 1 8 C1.89130413 5.3260876 2.47731534 2.76276177 3 0 C3.99 0.33 4.98 0.66 6 1 C6 3.31 6 5.62 6 8 C6.66 8.33 7.32 8.66 8 9 C8.33 9.66 8.66 10.32 9 11 C4.13947556 12.51891389 0.71574884 11.57191628 -4 10 C-5.16909807 6.49270578 -4.85056945 4.55692677 -4 1 C-2 0 -2 0 0 0 Z " fill="#131413" transform="translate(79,240)"/>
<path d="M0 0 C2.34882224 2.34882224 3.03503024 4.27123667 4.1875 7.375 C4.55230469 8.33148438 4.91710937 9.28796875 5.29296875 10.2734375 C6.01370542 13.05285296 5.98549829 14.35108103 5 17 C4.67 16.01 4.34 15.02 4 14 C2.02 16.97 2.02 16.97 0 20 C0.66 20 1.32 20 2 20 C3.10370043 23.3111013 2.92673641 25.24748949 2.5625 28.6875 C2.46066406 29.68136719 2.35882813 30.67523438 2.25390625 31.69921875 C2.17011719 32.45847656 2.08632812 33.21773437 2 34 C1.67 34 1.34 34 1 34 C0.80664062 32.865625 0.61328125 31.73125 0.4140625 30.5625 C0.15119775 29.04163968 -0.11183192 27.52080786 -0.375 26 C-0.50132812 25.25621094 -0.62765625 24.51242188 -0.7578125 23.74609375 C-1.62462112 18.76194421 -2.72066093 13.89486253 -4 9 C-3.01 9.495 -3.01 9.495 -2 10 C-2 10.99 -2 11.98 -2 13 C-1.01 12.67 -0.02 12.34 1 12 C1.0984702 7.86425173 0.77403558 4.06368679 0 0 Z " fill="#17995B" transform="translate(195,69)"/>
<path d="M0 0 C1.35158203 0.43119141 1.35158203 0.43119141 2.73046875 0.87109375 C3.76107422 1.21333984 3.76107422 1.21333984 4.8125 1.5625 C4.8125 2.2225 4.8125 2.8825 4.8125 3.5625 C5.8025 3.8925 6.7925 4.2225 7.8125 4.5625 C6.8225 6.0475 6.8225 6.0475 5.8125 7.5625 C6.1425 8.2225 6.4725 8.8825 6.8125 9.5625 C5.1625 9.5625 3.5125 9.5625 1.8125 9.5625 C1.8125 8.5725 1.8125 7.5825 1.8125 6.5625 C1.1525 6.5625 0.4925 6.5625 -0.1875 6.5625 C-0.1875 5.9025 -0.1875 5.2425 -0.1875 4.5625 C-2.4975 4.2325 -4.8075 3.9025 -7.1875 3.5625 C-7.5175 2.2425 -7.8475 0.9225 -8.1875 -0.4375 C-4.63507118 -1.62164294 -3.48919438 -1.13285532 0 0 Z " fill="#05A459" transform="translate(150.1875,26.4375)"/>
<path d="M0 0 C0.33 0 0.66 0 1 0 C0.20152091 21.79847909 0.20152091 21.79847909 -6 28 C-6 26.02 -6 24.04 -6 22 C-6.99 22 -7.98 22 -9 22 C-9.66 22 -10.32 22 -11 22 C-10.34 18.7 -9.68 15.4 -9 12 C-8.67 12 -8.34 12 -8 12 C-7.67 13.65 -7.34 15.3 -7 17 C-5.68 16.67 -4.36 16.34 -3 16 C-2.95101562 15.26394531 -2.90203125 14.52789062 -2.8515625 13.76953125 C-2.77679688 12.79371094 -2.70203125 11.81789062 -2.625 10.8125 C-2.55539063 9.84957031 -2.48578125 8.88664063 -2.4140625 7.89453125 C-1.99784147 4.98491062 -1.20125904 2.67109226 0 0 Z " fill="#159457" transform="translate(203,208)"/>
<path d="M0 0 C0.99 0 1.98 0 3 0 C3.02578125 0.62648437 3.0515625 1.25296875 3.078125 1.8984375 C3.13484375 2.71570313 3.1915625 3.53296875 3.25 4.375 C3.29640625 5.18710938 3.3428125 5.99921875 3.390625 6.8359375 C3.7922092 9.18838927 3.7922092 9.18838927 6.046875 10.2890625 C6.69140625 10.52367187 7.3359375 10.75828125 8 11 C8 11.66 8 12.32 8 13 C8.66 13.33 9.32 13.66 10 14 C6.26562152 14.87867729 2.83225427 15.08912219 -1 15 C-1.625 11.625 -1.625 11.625 -2 8 C-1.34 7.34 -0.68 6.68 0 6 C1.24546405 3.50907189 0.7767578 2.58919267 0 0 Z " fill="#010100" transform="translate(67,237)"/>
<path d="M0 0 C0.82757813 0.75216797 0.82757813 0.75216797 1.671875 1.51953125 C4.56823776 3.36134582 5.90169799 3.17212266 9.25 2.6875 C10.14203125 2.56761719 11.0340625 2.44773438 11.953125 2.32421875 C12.62859375 2.21722656 13.3040625 2.11023438 14 2 C14.33 3.32 14.66 4.64 15 6 C14.01 6.495 14.01 6.495 13 7 C12.34 6.67 11.68 6.34 11 6 C11 7.98 11 9.96 11 12 C9.02 12.99 9.02 12.99 7 14 C7.33 11.36 7.66 8.72 8 6 C6.68 6.33 5.36 6.66 4 7 C4 8.98 4 10.96 4 13 C3.67 13 3.34 13 3 13 C2.92652344 12.09507812 2.92652344 12.09507812 2.8515625 11.171875 C2.77679688 10.37265625 2.70203125 9.5734375 2.625 8.75 C2.55539063 7.96109375 2.48578125 7.1721875 2.4140625 6.359375 C1.98492887 3.914123 1.21399362 2.15163097 0 0 Z " fill="#070704" transform="translate(71,234)"/>
<path d="M0 0 C0.66 0.33 1.32 0.66 2 1 C1.67515625 1.94359375 1.67515625 1.94359375 1.34375 2.90625 C-0.48060724 8.51445928 -1.32723967 13.10968596 -1 19 C-3.64 19 -6.28 19 -9 19 C-7.68 15.7 -6.36 12.4 -5 9 C-4.67 9.99 -4.34 10.98 -4 12 C-3.79503906 11.21753906 -3.59007812 10.43507812 -3.37890625 9.62890625 C-3.10949219 8.61699219 -2.84007812 7.60507813 -2.5625 6.5625 C-2.29566406 5.55316406 -2.02882812 4.54382813 -1.75390625 3.50390625 C-1 1 -1 1 0 0 Z " fill="#131412" transform="translate(168,210)"/>
<path d="M0 0 C1.32 0 2.64 0 4 0 C4.38909985 1.45463481 4.76088029 2.91391207 5.125 4.375 C5.43824219 5.59316406 5.43824219 5.59316406 5.7578125 6.8359375 C5.83773437 7.55007812 5.91765625 8.26421875 6 9 C5.34 9.66 4.68 10.32 4 11 C2.64560332 8.29120665 2.93498549 5.99066732 3 3 C2.01 3.495 2.01 3.495 1 4 C1.020625 4.969375 1.04125 5.93875 1.0625 6.9375 C1 10 1 10 0 11 C-2.63746756 11.12685806 -5.23709166 11.18520617 -7.875 11.1875 C-8.97521484 11.20586914 -8.97521484 11.20586914 -10.09765625 11.22460938 C-13.93563514 11.23509566 -15.73347074 11.17768617 -19 9 C-16.56242587 8.97301578 -14.12515085 8.95316901 -11.6875 8.9375 C-10.99720703 8.92912109 -10.30691406 8.92074219 -9.59570312 8.91210938 C-6.4516975 8.89692094 -4.00579981 8.99806673 -1 10 C-1.01160156 9.36191406 -1.02320312 8.72382813 -1.03515625 8.06640625 C-1.04417969 7.24011719 -1.05320312 6.41382813 -1.0625 5.5625 C-1.07410156 4.73878906 -1.08570312 3.91507813 -1.09765625 3.06640625 C-1 1 -1 1 0 0 Z " fill="#010200" transform="translate(96,242)"/>
<path d="M0 0 C0.93423645 3.01031744 1.04449911 3.86650268 0 7 C1.32 7 2.64 7 4 7 C6.30441554 10.45662331 6.25860135 11.94857881 6 16 C5.67 16.66 5.34 17.32 5 18 C6.32 18.66 7.64 19.32 9 20 C7.125 20.625 7.125 20.625 5 21 C3 19 3 19 2.8046875 16.8359375 C2.82789062 16.02382812 2.85109375 15.21171875 2.875 14.375 C2.89304687 13.55773437 2.91109375 12.74046875 2.9296875 11.8984375 C2.95289062 11.27195313 2.97609375 10.64546875 3 10 C1.35 9.67 -0.3 9.34 -2 9 C-2.125 5.625 -2.125 5.625 -2 2 C-1.34 1.34 -0.68 0.68 0 0 Z " fill="#0B0805" transform="translate(115,233)"/>
<path d="M0 0 C2.05078125 0.03255208 4.1015625 0.06510417 6.15234375 0.09765625 C6.15234375 0.42765625 6.15234375 0.75765625 6.15234375 1.09765625 C3.84234375 1.09765625 1.53234375 1.09765625 -0.84765625 1.09765625 C-0.84765625 2.08765625 -0.84765625 3.07765625 -0.84765625 4.09765625 C-0.18765625 4.09765625 0.47234375 4.09765625 1.15234375 4.09765625 C0.82234375 10.03765625 0.49234375 15.97765625 0.15234375 22.09765625 C-1.82765625 23.08765625 -1.82765625 23.08765625 -3.84765625 24.09765625 C-3.60015625 23.14632812 -3.60015625 23.14632812 -3.34765625 22.17578125 C-2.67667782 18.04507032 -2.78137786 14.02319492 -2.84765625 9.84765625 C-2.89317487 6.92536112 -2.89500025 4.0211481 -2.84765625 1.09765625 C-1.84765625 0.09765625 -1.84765625 0.09765625 0 0 Z " fill="#010201" transform="translate(145.84765625,205.90234375)"/>
<path d="M0 0 C0.309375 0.639375 0.61875 1.27875 0.9375 1.9375 C1.8345163 3.93610821 1.8345163 3.93610821 3 5 C3.12586907 7.2890608 3.17577971 9.58251118 3.1875 11.875 C3.20167969 13.13054687 3.21585937 14.38609375 3.23046875 15.6796875 C3 19 3 19 1 22 C1.99 22.66 2.98 23.32 4 24 C2.35 23.67 0.7 23.34 -1 23 C-0.91621094 21.83082031 -0.83242187 20.66164062 -0.74609375 19.45703125 C-0.64288348 17.90887717 -0.5400381 16.36069874 -0.4375 14.8125 C-0.38142578 14.04357422 -0.32535156 13.27464844 -0.26757812 12.48242188 C-0.00609642 8.42073943 -0.07653607 4.99650358 -1 1 C-0.67 0.67 -0.34 0.34 0 0 Z " fill="#060505" transform="translate(108,207)"/>
<path d="M0 0 C0.99 0.33 1.98 0.66 3 1 C3.1875 4.375 3.1875 4.375 3 8 C0 10 0 10 -4 10 C-3.67 12.64 -3.34 15.28 -3 18 C-5.5654594 15.4345406 -5.54046087 13.52313332 -6 10 C-4.35 8.68 -2.7 7.36 -1 6 C-1.66 5.67 -2.32 5.34 -3 5 C-1.125 1.125 -1.125 1.125 0 0 Z " fill="#0D0B09" transform="translate(121,212)"/>
<path d="M0 0 C4 4 8 8 12 12 C9 13 9 13 6.375 11.8125 C3.6768569 9.75339079 3.70636893 9.12820527 3 6 C1.0162233 4.71563266 1.0162233 4.71563266 -1 4 C-0.67 2.68 -0.34 1.36 0 0 Z M-1 10 C1.97 10.495 1.97 10.495 5 11 C4.01 11.495 4.01 11.495 3 12 C2.67 12.66 2.34 13.32 2 14 C1.01 12.68 0.02 11.36 -1 10 Z " fill="#169958" transform="translate(42,252)"/>
<path d="M0 0 C2.475 0.495 2.475 0.495 5 1 C4.67 1.99 4.34 2.98 4 4 C2.68 3.34 1.36 2.68 0 2 C0 1.34 0 0.68 0 0 Z M-9 2 C-4.95647711 2.46656033 -0.98071164 3.15560662 3 4 C2.34 5.32 1.68 6.64 1 8 C0.34 8 -0.32 8 -1 8 C-1.33 8.66 -1.66 9.32 -2 10 C-2.433125 9.525625 -2.86625 9.05125 -3.3125 8.5625 C-5.02309613 6.76313043 -5.02309613 6.76313043 -8 6 C-8 5.34 -8 4.68 -8 4 C-8.66 3.67 -9.32 3.34 -10 3 C-9.67 2.67 -9.34 2.34 -9 2 Z " fill="#0A0908" transform="translate(126,175)"/>
<path d="M0 0 C0.33 0.66 0.66 1.32 1 2 C2.32796291 2.35412344 3.66216607 2.68521554 5 3 C5.99 3.66 6.98 4.32 8 5 C7.67 6.32 7.34 7.64 7 9 C1.60155422 8.65171318 1.60155422 8.65171318 -1 8 C-2.5625 6.0625 -2.5625 6.0625 -3 4 C-2.67 3.34 -2.34 2.68 -2 2 C-1.34 2 -0.68 2 0 2 C0 1.34 0 0.68 0 0 Z " fill="#02A757" transform="translate(133,19)"/>
<path d="M0 0 C3.7351154 2.98809232 4.67936381 5.58830414 5.60546875 10.09765625 C6.00463197 12.20887724 6.00463197 12.20887724 7 15 C8.37285156 14.96519531 8.37285156 14.96519531 9.7734375 14.9296875 C10.96195313 14.91164062 12.15046875 14.89359375 13.375 14.875 C14.55835937 14.85179687 15.74171875 14.82859375 16.9609375 14.8046875 C20 15 20 15 22 17 C19.72923158 17.02699725 17.45837179 17.04639453 15.1875 17.0625 C13.29064453 17.07990234 13.29064453 17.07990234 11.35546875 17.09765625 C8 17 8 17 5 16 C2.327618 10.86902656 1.09025318 5.65649 0 0 Z " fill="#020000" transform="translate(63,214)"/>
<path d="M0 0 C0.66 0.33 1.32 0.66 2 1 C1.5 3.3125 1.5 3.3125 0 6 C-1.88826913 6.66255057 -3.78005894 7.31746323 -5.69140625 7.91015625 C-10.32819346 10.0990964 -13.60179182 14.2478118 -17 18 C-17 15 -17 15 -15.05859375 12.6953125 C-10.27108648 8.00055872 -5.62248365 3.66683716 0 0 Z " fill="#219B60" transform="translate(57,33)"/>
<path d="M0 0 C2.9425963 0.30652045 5.34542308 0.67271154 8 2 C8.625 4.0625 8.625 4.0625 9 6 C5.67465243 7.10844919 3.37817425 6.84454356 0 6 C0 5.01 0 4.02 0 3 C-0.66 2.67 -1.32 2.34 -2 2 C-1.34 1.34 -0.68 0.68 0 0 Z " fill="#06A557" transform="translate(163,35)"/>
<path d="M0 0 C0.66 0.33 1.32 0.66 2 1 C2.40729228 3.32156597 2.74438677 5.6568787 3 8 C-1.455 8.495 -1.455 8.495 -6 9 C-4.25618453 5.51236907 -2.47193291 2.96631949 0 0 Z " fill="#06A45A" transform="translate(180,253)"/>
<path d="M0 0 C0.99 0 1.98 0 3 0 C3.3125 2.1875 3.3125 2.1875 3 5 C0.5 7.8125 0.5 7.8125 -2 10 C-2.33 9.34 -2.66 8.68 -3 8 C-3.66 8 -4.32 8 -5 8 C-4.67 6.68 -4.34 5.36 -4 4 C-3.34 4 -2.68 4 -2 4 C-1.34 2.68 -0.68 1.36 0 0 Z " fill="#03A55A" transform="translate(191,238)"/>
<path d="M0 0 C4.03437872 1.98047273 7.88390423 4.2124991 11.75 6.5 C12.44738281 6.90347656 13.14476563 7.30695313 13.86328125 7.72265625 C15.61030769 8.75856429 17.3100555 9.87337033 19 11 C19 11.66 19 12.32 19 13 C16.525 12.505 16.525 12.505 14 12 C14 11.34 14 10.68 14 10 C12.88625 9.71125 11.7725 9.4225 10.625 9.125 C7 8 7 8 5 6 C4.67 5.34 4.34 4.68 4 4 C3.34 4 2.68 4 2 4 C2 3.34 2 2.68 2 2 C1.34 2 0.68 2 0 2 C0 1.34 0 0.68 0 0 Z " fill="#1B9658" transform="translate(54,265)"/>
<path d="M0 0 C4.20626034 1.50223584 5.73900021 4.28550034 8 8 C7.67 8.66 7.34 9.32 7 10 C6.01 9.34 5.02 8.68 4 8 C3.01 8.33 2.02 8.66 1 9 C-1.125 2.25 -1.125 2.25 0 0 Z " fill="#04A55B" transform="translate(29,237)"/>
<path d="M0 0 C0.99 0.33 1.98 0.66 3 1 C3.99 0.67 4.98 0.34 6 0 C6 4.62 6 9.24 6 14 C4.35649921 10.71299843 3.58678331 8.52069985 3 5 C2.01 5.33 1.02 5.66 0 6 C-0.66 5.34 -1.32 4.68 -2 4 C-2 3.34 -2 2.68 -2 2 C-1.34 2 -0.68 2 0 2 C0 1.34 0 0.68 0 0 Z " fill="#070806" transform="translate(41,211)"/>
<path d="M0 0 C0.99 0.33 1.98 0.66 3 1 C3 2.98 3 4.96 3 7 C-2.75 9 -2.75 9 -5 9 C-5.12375 8.360625 -5.2475 7.72125 -5.375 7.0625 C-5.684375 6.0415625 -5.684375 6.0415625 -6 5 C-6.66 4.67 -7.32 4.34 -8 4 C-8 3.34 -8 2.68 -8 2 C-6.0625 2.3125 -6.0625 2.3125 -4 3 C-3.67 3.99 -3.34 4.98 -3 6 C-2.34 6.33 -1.68 6.66 -1 7 C-0.67 4.69 -0.34 2.38 0 0 Z " fill="#0F0D08" transform="translate(150,74)"/>
<path d="M0 0 C0.66 1.98 1.32 3.96 2 6 C0.68 5.34 -0.64 4.68 -2 4 C-2.33 4.66 -2.66 5.32 -3 6 C-5.31 5.67 -7.62 5.34 -10 5 C-9.67 4.01 -9.34 3.02 -9 2 C-3.21052632 0 -3.21052632 0 0 0 Z " fill="#0D0C08" transform="translate(61,224)"/>
<path d="M0 0 C0.99 0.33 1.98 0.66 3 1 C3 1.66 3 2.32 3 3 C3.66 3.33 4.32 3.66 5 4 C4.67 4.99 4.34 5.98 4 7 C1.6875 7.25 1.6875 7.25 -1 7 C-2.97610386 4.95575462 -4 3.8823175 -4 1 C-2.68 1.33 -1.36 1.66 0 2 C0 1.34 0 0.68 0 0 Z " fill="#131414" transform="translate(104,143)"/>
<path d="M0 0 C1.73662334 3.22515763 2.8905928 6.51329166 4 10 C3 11 3 11 0.4375 11.0625 C-0.366875 11.041875 -1.17125 11.02125 -2 11 C-2.33 10.34 -2.66 9.68 -3 9 C-2.34 9 -1.68 9 -1 9 C-1.020625 7.88625 -1.04125 6.7725 -1.0625 5.625 C-1 2 -1 2 0 0 Z " fill="#131512" transform="translate(149,242)"/>
<path d="M0 0 C2 1 2 1 3 3 C3.06982019 5.82771783 2.99703129 8.64101392 2.9375 11.46875 C2.82047338 13.99511297 2.82047338 13.99511297 4 16 C2.05078125 15.375 2.05078125 15.375 0 14 C-0.64453125 11.25 -0.64453125 11.25 -0.8125 8 C-0.88082031 6.9275 -0.94914062 5.855 -1.01953125 4.75 C-1 2 -1 2 0 0 Z " fill="#010100" transform="translate(61,236)"/>
<path d="M0 0 C0.66 0 1.32 0 2 0 C2.09509169 4.84967635 1.95297433 9.23512836 1 14 C1.36856864 16.23167185 1.36856864 16.23167185 2 18 C0.29115995 16.37660195 -1.37446717 14.70680947 -3 13 C-3 11 -3 11 -1 9 C-0.53993654 6.79749008 -0.53993654 6.79749008 -0.375 4.375 C-0.30023438 3.55773437 -0.22546875 2.74046875 -0.1484375 1.8984375 C-0.09945312 1.27195313 -0.05046875 0.64546875 0 0 Z " fill="#010101" transform="translate(84,209)"/>
<path d="M0 0 C0.66 0 1.32 0 2 0 C2.33 0.99 2.66 1.98 3 3 C4.29355827 4.37195574 5.62298702 5.71182656 7 7 C5.625 8.5 5.625 8.5 4 10 C3.34 10 2.68 10 2 10 C1.814375 9.071875 1.814375 9.071875 1.625 8.125 C1.12802644 5.80879168 1.12802644 5.80879168 -1 4 C-0.625 1.875 -0.625 1.875 0 0 Z " fill="#02A759" transform="translate(183,54)"/>
<path d="M0 0 C0.66 0.33 1.32 0.66 2 1 C2.4140625 3.50390625 2.4140625 3.50390625 2.625 6.5625 C2.69976562 7.57441406 2.77453125 8.58632812 2.8515625 9.62890625 C2.90054688 10.41136719 2.94953125 11.19382813 3 12 C-0.22791555 14.1519437 -1.28400809 14.20086443 -5 14 C-4.67 13.01 -4.34 12.02 -4 11 C-3.01 10.67 -2.02 10.34 -1 10 C-0.67 10.33 -0.34 10.66 0 11 C0 7.37 0 3.74 0 0 Z " fill="#050A04" transform="translate(161,239)"/>
<path d="M0 0 C0.66 0.33 1.32 0.66 2 1 C2 2.65 2 4.3 2 6 C-0.95664519 7.4783226 -3.74229737 7.06032783 -7 7 C-7.33 6.01 -7.66 5.02 -8 4 C-2.25 2.875 -2.25 2.875 0 4 C0 2.68 0 1.36 0 0 Z " fill="#0D0B08" transform="translate(151,224)"/>
<path d="M0 0 C0.33 0 0.66 0 1 0 C1.02689216 1.47906892 1.04634621 2.95827483 1.0625 4.4375 C1.07410156 5.26121094 1.08570313 6.08492187 1.09765625 6.93359375 C1 9 1 9 0 10 C2.50357861 9.1654738 4.66785852 8.20628008 7 7 C6.125 10.875 6.125 10.875 5 12 C2.32941149 12.14115161 -0.32432238 12.04247107 -3 12 C-2.690625 11.319375 -2.38125 10.63875 -2.0625 9.9375 C-0.86629351 6.63034088 -0.40994603 3.48454122 0 0 Z " fill="#080805" transform="translate(173,217)"/>
<path d="M0 0 C0.66 0.33 1.32 0.66 2 1 C1.67515625 1.96099609 1.67515625 1.96099609 1.34375 2.94140625 C-0.34059996 8.1738082 -1.35826786 12.5065595 -1 18 C-3.48233348 14.27649978 -3.54322777 11.31433067 -3 7 C-2.19002181 4.50920001 -1.17696713 2.35393425 0 0 Z " fill="#030302" transform="translate(168,210)"/>
<path d="M0 0 C2.48731205 3.73096808 2.26081721 6.62721959 2.1875 10.9375 C2.18685547 11.65357422 2.18621094 12.36964844 2.18554688 13.10742188 C2.15695659 16.53507923 2.06905246 19.72442328 1 23 C0.01 23 -0.98 23 -2 23 C-1.505 21.515 -1.505 21.515 -1 20 C-0.8535286 18.44733347 -0.75305926 16.89004338 -0.68359375 15.33203125 C-0.64169922 14.43935547 -0.59980469 13.54667969 -0.55664062 12.62695312 C-0.51732422 11.69818359 -0.47800781 10.76941406 -0.4375 9.8125 C-0.37272461 8.40194336 -0.37272461 8.40194336 -0.30664062 6.96289062 C-0.20061335 4.64207146 -0.09854971 2.32114675 0 0 Z " fill="#000000" transform="translate(88,207)"/>
<path d="M0 0 C0 0.66 0 1.32 0 2 C-0.61488281 2.26554687 -1.22976562 2.53109375 -1.86328125 2.8046875 C-2.67152344 3.15789062 -3.47976562 3.51109375 -4.3125 3.875 C-5.51326172 4.39707031 -5.51326172 4.39707031 -6.73828125 4.9296875 C-9.1961834 6.02571894 -9.1961834 6.02571894 -12 8 C-15.6875 7.625 -15.6875 7.625 -19 7 C-15.55641886 5.18491044 -12.0046762 3.7760714 -8.375 2.375 C-7.22773438 1.92898438 -6.08046875 1.48296875 -4.8984375 1.0234375 C-2 0 -2 0 0 0 Z " fill="#1E8954" transform="translate(153,275)"/>
<path d="M0 0 C0.66 0 1.32 0 2 0 C2.625 2.875 2.625 2.875 3 6 C2.34 6.66 1.68 7.32 1 8 C-0.32 8 -1.64 8 -3 8 C-2.67 6.35 -2.34 4.7 -2 3 C-1.34 3 -0.68 3 0 3 C0 2.01 0 1.02 0 0 Z " fill="#101110" transform="translate(135,140)"/>
<path d="M0 0 C1.2890625 1.4609375 1.2890625 1.4609375 2.625 3.375 C3.29402344 4.31472656 3.29402344 4.31472656 3.9765625 5.2734375 C5 7 5 7 5 9 C2.20171644 8.61402985 1.1794116 8.19863427 -0.75 6.0625 C-2 4 -2 4 -2 2 C-2.66 1.67 -3.32 1.34 -4 1 C-2 0 -2 0 0 0 Z " fill="#100A04" transform="translate(95,113)"/>
<path d="M0 0 C0.99 0.33 1.98 0.66 3 1 C2.67 1.66 2.34 2.32 2 3 C2 4.32 2 5.64 2 7 C1.34 7 0.68 7 0 7 C0 6.34 0 5.68 0 5 C-4.29 4.34 -8.58 3.68 -13 3 C-13 2.67 -13 2.34 -13 2 C-8.71 2 -4.42 2 0 2 C0 1.34 0 0.68 0 0 Z " fill="#080709" transform="translate(122,204)"/>
<path d="M0 0 C1.46726798 3.81489674 0.43336419 6.29011622 -1 10 C-1.99 10 -2.98 10 -4 10 C-4.25 7.25 -4.25 7.25 -4 4 C-2 1.625 -2 1.625 0 0 Z " fill="#090905" transform="translate(149,171)"/>
<path d="M0 0 C-2.16099373 2.16099373 -3.5210418 2.71563716 -6.375 3.6875 C-7.14585937 3.95949219 -7.91671875 4.23148437 -8.7109375 4.51171875 C-11.20055308 5.04278009 -12.61553018 4.81115526 -15 4 C-14.34 4 -13.68 4 -13 4 C-12.67 3.01 -12.34 2.02 -12 1 C-11.34 1 -10.68 1 -10 1 C-9.4225 0.835 -8.845 0.67 -8.25 0.5 C-5.46373189 -0.11917069 -2.84507877 -0.06466088 0 0 Z " fill="#179458" transform="translate(150,285)"/>
<path d="M0 0 C2.475 0.99 2.475 0.99 5 2 C5 2.66 5 3.32 5 4 C5.66 4.33 6.32 4.66 7 5 C3.30458414 5.95024979 0.69541586 5.95024979 -3 5 C-1.125 1.125 -1.125 1.125 0 0 Z " fill="#080A0A" transform="translate(70,246)"/>
<path d="M0 0 C0.66 1.65 1.32 3.3 2 5 C0.625 6.5 0.625 6.5 -1 8 C-1.66 8 -2.32 8 -3 8 C-3.2165625 6.824375 -3.2165625 6.824375 -3.4375 5.625 C-3.87798925 3.03578982 -3.87798925 3.03578982 -5 1 C-3 0 -3 0 0 0 Z " fill="#0B0A07" transform="translate(139,69)"/>
<path d="M0 0 C0.99 0.66 1.98 1.32 3 2 C2.67 3.32 2.34 4.64 2 6 C0.68 6.33 -0.64 6.66 -2 7 C-2.33 5.35 -2.66 3.7 -3 2 C-2.01 1.34 -1.02 0.68 0 0 Z " fill="#04A55A" transform="translate(195,228)"/>
<path d="M0 0 C0.1875 2.875 0.1875 2.875 0 6 C-0.99 6.66 -1.98 7.32 -3 8 C-2.34 8.33 -1.68 8.66 -1 9 C-1.99 9 -2.98 9 -4 9 C-4.66 7.02 -5.32 5.04 -6 3 C-3.375 0 -3.375 0 0 0 Z " fill="#0C0905" transform="translate(144,61)"/>
<path d="M0 0 C1.98 0.495 1.98 0.495 4 1 C4.33 2.32 4.66 3.64 5 5 C3.125 5.625 3.125 5.625 1 6 C0.34 5.34 -0.32 4.68 -1 4 C-0.625 1.875 -0.625 1.875 0 0 Z " fill="#02A457" transform="translate(171,42)"/>
<path d="M0 0 C1.65 0 3.3 0 5 0 C5 1.65 5 3.3 5 5 C4.34 5 3.68 5 3 5 C2.67 5.66 2.34 6.32 2 7 C0 5 0 5 -0.125 2.375 C-0.08375 1.59125 -0.0425 0.8075 0 0 Z " fill="#05A956" transform="translate(58,32)"/>
<path d="M0 0 C0 0.66 0 1.32 0 2 C-1.32 2 -2.64 2 -4 2 C-4.66 3.32 -5.32 4.64 -6 6 C-8.31 6 -10.62 6 -13 6 C-9.40464172 2.97989905 -4.81374718 0 0 0 Z " fill="#229B61" transform="translate(78,23)"/>
<path d="M0 0 C1.65 0 3.3 0 5 0 C5 1.65 5 3.3 5 5 C3.35 5.33 1.7 5.66 0 6 C-1.125 2.25 -1.125 2.25 0 0 Z " fill="#080805" transform="translate(123,243)"/>
<path d="M0 0 C1.98 0.99 1.98 0.99 4 2 C3.67 3.65 3.34 5.3 3 7 C3.66 7.33 4.32 7.66 5 8 C4.01 8.495 4.01 8.495 3 9 C1.5 7.875 1.5 7.875 0 6 C-0.1875 2.8125 -0.1875 2.8125 0 0 Z " fill="#0B0A0A" transform="translate(104,136)"/>
<path d="M0 0 C1.5 1.125 1.5 1.125 3 3 C3.1875 6.1875 3.1875 6.1875 3 9 C2.34 9 1.68 9 1 9 C1 7.02 1 5.04 1 3 C-0.32 2.67 -1.64 2.34 -3 2 C-2.01 1.34 -1.02 0.68 0 0 Z " fill="#050301" transform="translate(145,242)"/>
<path d="M0 0 C1.9375 0.3125 1.9375 0.3125 4 1 C4.33 1.99 4.66 2.98 5 4 C2.69 4.66 0.38 5.32 -2 6 C-2 5.01 -2 4.02 -2 3 C-1.34 2.67 -0.68 2.34 0 2 C0 1.34 0 0.68 0 0 Z " fill="#070503" transform="translate(64,229)"/>
<path d="M0 0 C0.66 0.33 1.32 0.66 2 1 C2.042721 2.66611905 2.04063832 4.33382885 2 6 C1 7 1 7 -1.5625 7.0625 C-2.7690625 7.0315625 -2.7690625 7.0315625 -4 7 C-3.34 5.68 -2.68 4.36 -2 3 C-1.34 3 -0.68 3 0 3 C0 2.01 0 1.02 0 0 Z " fill="#0A0B08" transform="translate(142,246)"/>
<path d="M0 0 C1.65 0.33 3.3 0.66 5 1 C3.625 2.5 3.625 2.5 2 4 C1.34 4 0.68 4 0 4 C-0.33 5.32 -0.66 6.64 -1 8 C-1.625 5.6875 -1.625 5.6875 -2 3 C-1.34 2.01 -0.68 1.02 0 0 Z " fill="#0C0B06" transform="translate(163,163)"/>
<path d="M0 0 C0.66 0 1.32 0 2 0 C2.66 3.3 3.32 6.6 4 10 C3.01 9.67 2.02 9.34 1 9 C1.33 8.34 1.66 7.68 2 7 C1.34 6.67 0.68 6.34 0 6 C-1 3 -1 3 0 0 Z " fill="#020A07" transform="translate(151,243)"/>
<path d="M0 0 C2.61724095 2.36797991 4.32861729 4.89600354 6 8 C6 8.66 6 9.32 6 10 C5.34 10 4.68 10 4 10 C4 9.01 4 8.02 4 7 C3.34 7 2.68 7 2 7 C0.3125 5.1875 0.3125 5.1875 -1 3 C-0.67 2.01 -0.34 1.02 0 0 Z " fill="#1B9658" transform="translate(189,59)"/>
<path d="M0 0 C0.99 0 1.98 0 3 0 C3 0.99 3 1.98 3 3 C2.34 3 1.68 3 1 3 C1 3.66 1 4.32 1 5 C-1.31 5 -3.62 5 -6 5 C-5.67 4.34 -5.34 3.68 -5 3 C-3.68 3 -2.36 3 -1 3 C-0.67 2.01 -0.34 1.02 0 0 Z " fill="#0C9E5A" transform="translate(134,286)"/>
<path d="M0 0 C1.98 0 3.96 0 6 0 C4.35 1.65 2.7 3.3 1 5 C0.67 3.35 0.34 1.7 0 0 Z " fill="#151715" transform="translate(177,208)"/>
<path d="M0 0 C0.33 0.66 0.66 1.32 1 2 C1.66 2.33 2.32 2.66 3 3 C2.01 4.485 2.01 4.485 1 6 C-0.65 5.67 -2.3 5.34 -4 5 C-3.34 4.67 -2.68 4.34 -2 4 C-2 3.34 -2 2.68 -2 2 C-1.34 2 -0.68 2 0 2 C0 1.34 0 0.68 0 0 Z " fill="#0E0805" transform="translate(95,121)"/>
<path d="M0 0 C0.66 0.66 1.32 1.32 2 2 C1.8125 4 1.8125 4 1 6 C0.01 6.66 -0.98 7.32 -2 8 C-2.33 6.68 -2.66 5.36 -3 4 C-2.34 3.67 -1.68 3.34 -1 3 C-0.67 2.01 -0.34 1.02 0 0 Z " fill="#0B0705" transform="translate(61,102)"/>
<path d="M0 0 C0.66 0 1.32 0 2 0 C2.66 1.32 3.32 2.64 4 4 C4.99 4 5.98 4 7 4 C6.34 5.32 5.68 6.64 5 8 C0 2.25 0 2.25 0 0 Z " fill="#1C975D" transform="translate(35,254)"/>
<path d="M0 0 C0.99 0.495 0.99 0.495 2 1 C2.4140625 3.28515625 2.4140625 3.28515625 2.625 6.0625 C2.69976562 6.98160156 2.77453125 7.90070313 2.8515625 8.84765625 C2.92503906 9.91306641 2.92503906 9.91306641 3 11 C2.34 10.67 1.68 10.34 1 10 C0.46582846 6.63471927 0 3.40372484 0 0 Z " fill="#000000" transform="translate(161,239)"/>
<path d="M0 0 C1.65 0 3.3 0 5 0 C3.515 2.475 3.515 2.475 2 5 C1.01 4.01 0.02 3.02 -1 2 C-0.67 1.34 -0.34 0.68 0 0 Z " fill="#151512" transform="translate(42,208)"/>
<path d="M0 0 C0 2.62113708 -0.31292445 4.50935112 -1 7 C-2.32 7.33 -3.64 7.66 -5 8 C-3.8141763 4.62496331 -2.72426311 2.35277269 0 0 Z " fill="#229A62" transform="translate(38,51)"/>
<path d="" fill="#000000" transform="translate(0,0)"/>
</svg>
